<svg version="1" xmlns="http://www.w3.org/2000/svg" width="933.333" height="933.333" viewBox="0 0 700.000000 700.000000"><path d="M540.8 198.5c-.2.1-6.6.5-14.3.9-23.8 1-40.6 4-59.3 10.2-24 8.1-42 22.3-49.9 39.5-4.7 10.1-5.8 15.7-5.7 29.9.1 11.7.4 14.5 2.7 21.6 10 30.6 38.2 46.1 92.2 50.9 3.9.4 8.4.8 10 1 1.7.2 6.6.7 11 1 4.4.3 8.7.8 9.5 1 .8.2 5.5.7 10.4 1 5 .4 9.7.8 10.5 1 .9.1 5.4.6 10.1 1 4.7.3 10.1.8 12 1 1.9.3 6 .7 9 1 3 .3 6.9.8 8.5 1 1.7.2 5.5.6 8.5 1 24.5 2.9 45.7 10.6 55.5 20.2 9.5 9.3 13.6 20.3 13.6 36.8 0 16.6-4 27.4-14.1 37.6-12.4 12.5-35.5 20.9-64.5 23.5-2.7.3-7.2.7-10 .9-6.2.6-46.9.6-51 0-1.6-.2-5.5-.6-8.5-1-3-.3-8.2-1-11.5-1.6-3.3-.6-6.9-1.2-8-1.4-3.7-.6-14-3.4-19.7-5.4-32.7-11.3-53.1-30.9-62.4-60-1.3-4.1-2.4-8.5-2.4-9.9 0-2.3-.2-2.4-4.2-1.8-2.4.3-7.7.9-11.9 1.2-4.3.4-8.2 1-8.8 1.3-2 1.3 4 21.5 9.9 33.1 12.3 24.6 34.8 43.2 65.3 53.9 8.4 2.9 21.3 6.4 28.7 7.6 1.9.3 4.2.8 5 1 .8.2 4.2.7 7.5 1.1 3.3.3 6.9.8 8 1 8.4 1.7 47.4 2.3 65.6 1.1 9.8-.7 12.2-.9 24.4-2.8 39.7-6.1 67.5-21.8 79.3-44.7 6.6-12.8 7.4-16.5 7.8-34.7.3-13.3-.9-22.7-3.5-29-8.5-20-22-32-45.1-39.9-8.2-2.8-22-6.1-29-7-2.5-.3-5.8-.8-7.5-1.1-4.9-.7-11.6-1.5-17.5-2-3-.3-7.7-.7-10.5-1-2.7-.3-7.7-.7-11-1-5.7-.5-10.9-1.1-18.5-2-1.9-.2-6.6-.7-10.5-1-3.8-.3-8.8-.8-11-1-2.2-.2-7.1-.7-11-1-6.6-.6-15.3-1.6-25.5-3.1-6.4-.9-20.3-4.1-27-6.3-20.7-6.8-32.9-19.2-35.5-36.2-4.5-28.5 9.6-48.7 41.5-59.3 5.8-1.9 11.9-3.7 13.5-4 1.7-.3 3.9-.8 5-1 4.9-1 17.6-2.6 24-3.1 8.4-.7 40.9-.7 48.1-.1 57 5 88.3 25.4 99.5 65.1 1.3 4.4 2.4 8.1 2.4 8.2.1.2 2.6-.1 5.6-.7 3-.5 7-1.2 8.9-1.6 1.9-.3 4.2-.7 5-.9.8-.2 2.3-.4 3.4-.4 1.6-.1 1.7-.6 1.1-3.9-2-11.3-9.4-28.1-17-38.6-17.3-24.1-50.2-40.5-91-45.2-2.2-.3-5.1-.7-6.5-1-1.4-.2-9.9-.7-19-1-9.1-.3-17.3-.7-18.2-.8-.9-.2-1.8-.3-2-.1zM.2 349.7l.3 141.8 10.2.1c8.4 0 10.2-.2 10.5-1.5.2-.9.3-60.2.3-131.9-.1-71.6.1-130.2.4-130.2.3 0 2.2 3.4 4 7.6 1.9 4.2 11.1 21 20.4 37.3 9.3 16.3 17.9 31.4 19.1 33.6 1.3 2.2 13.1 22.9 26.3 46 13.2 23.1 25.1 44 26.5 46.5 1.4 2.5 12.3 21.6 24.3 42.5s22.9 40 24.3 42.5c1.4 2.5 3 5.2 3.5 6.1.8 1.2 3 1.5 11.8 1.4 6-.1 11-.3 11.2-.6.2-.2 3.3-5.6 6.9-11.9 3.5-6.3 17.2-30.2 30.3-53 70.7-123.3 86-150 88.8-155 1.6-3 3.3-6 3.7-6.5.4-.6 1.8-2.8 3-5 1.3-2.2 5.2-9.2 8.8-15.5 3.5-6.3 6.8-12.5 7.3-13.8.5-1.2 1.2-2.2 1.6-2.2.5 0 .8 59.3.8 131.7v131.8h21v-283l-18-.3c-17.8-.2-18-.2-19.1 2-.9 2-33.8 59.4-60.3 105.3-4.8 8.2-9 15.7-9.4 16.5-.4.8-1.5 2.8-2.6 4.5-1.4 2.3-41.2 71.6-50.9 88.5-1.1 1.9-5.1 8.9-8.9 15.5-3.8 6.6-8.4 15.5-10.3 19.7-1.9 4.3-3.8 7.8-4.1 7.8-.4 0-1.9-3-3.4-6.8-2.4-6-5.3-11.8-11.2-22.2-1.1-1.9-6.5-11.4-12-21.1-5.5-9.6-11.2-19.5-12.5-22-1.4-2.4-3.9-6.8-5.7-9.7-1.7-2.9-3.1-5.5-3.1-5.7 0-.2-2.9-5.3-6.5-11.4-3.6-6-6.5-11.2-6.5-11.4 0-.3-1.7-3.4-3.8-6.8-2.1-3.5-5.2-8.9-6.9-11.9-4.8-8.8-7.5-13.4-8.3-14.5-.4-.6-2.1-3.5-3.7-6.5-1.7-3-14.9-26.4-29.5-52s-27.9-49-29.5-52l-3.1-5.5-18.1-.3L0 208l.2 141.7z"/></svg>