<svg version="1" xmlns="http://www.w3.org/2000/svg" width="933.333" height="933.333" viewBox="0 0 700.000000 700.000000"><path d="M0 350v271h41v-4.3c.3-19.2-.1-493.2-.3-496.5-.5-6.2 1.5-5.3 4.8 2 6.5 14.9 14.9 31.4 23.5 46.3 5.1 8.8 10.2 17.8 11.5 20 2.8 5 23.3 40.9 74.8 131 22 38.5 40.9 71.6 42 73.5 1 1.9 7.4 13.2 14.2 25 6.8 11.8 13.3 23.3 14.5 25.5 1.2 2.2 4.8 8.5 8 14 10.2 17.7 21.7 37.9 23.7 41.5 1.1 1.9 9.2 16.1 18 31.5 8.8 15.4 16.9 29.6 17.9 31.5 1.1 1.9 3.8 6.6 6 10.5 5.8 9.9 15.8 27.4 18.1 31.5 1 1.9 3.6 6.5 5.8 10.2l3.9 6.8h42.1l18.8-32.8c22.8-39.7 20-34.8 29.7-51.6 4.4-7.6 8-14 8-14.2 0-.2 1.4-2.7 3.1-5.6 1.8-2.9 4-6.8 5.1-8.7 3.7-6.6 22-38.3 23.8-41.5 1-1.7 2.7-4.7 3.8-6.6 1.1-1.9 10-17.5 19.8-34.5 9.8-17.1 19.3-33.7 21.1-37 1.9-3.3 3.8-6.7 4.3-7.5 1.3-2 5.1-8.7 46.5-81 19.7-34.4 42.8-74.7 51.3-89.5 32.2-56.1 35.1-61.3 46.2-82.4 5.9-11.4 8.9-14.7 8.3-9.6-.2 1.6-.5 488.8-.3 499.7v2.8h41V79l-34.6.2-34.6.3-5.7 10c-3.2 5.5-11.2 19.4-17.8 31-6.6 11.5-13 22.6-14.1 24.5-1 1.9-8.8 15.4-17.2 30-8.3 14.6-16.2 28.3-17.5 30.5-2.3 4-7.4 13-63.2 110-17.1 29.7-32 55.6-33.1 57.5-12.9 22.5-17.7 31-19.2 33.5-.9 1.6-7.6 13.3-14.8 26-7.3 12.6-13.6 23.7-14.2 24.5-.5.8-2.5 4.2-4.2 7.4-1.8 3.2-3.8 6.6-4.3 7.5-.6.9-3.7 6.3-7 12.1s-6.4 11.3-7 12.2c-1.9 3.3-14 24.3-15 26.3-.6 1.1-3.8 6.5-7 12-7.2 12.4-13.8 25.7-17.5 35.5-2.7 7-4.3 7.7-6 2.2-2.2-6.7-10.3-24.6-15.2-33-2.6-4.6-4.8-8.5-4.8-8.7 0-.2-1.8-3.3-4-6.9-2.2-3.6-4-6.8-4-7 0-.2-2.7-5-6-10.6s-6-10.3-6-10.5c0-.2-3.8-6.9-8.5-15-4.7-8-8.5-14.8-8.5-15.1 0-.2-1.2-2.3-2.6-4.5-1.4-2.3-3.6-6-4.9-8.2-2.2-4.1-32.7-57.6-36.7-64.7-3.1-5.3-18.1-31.9-21-37-1.4-2.5-7.7-13.5-14-24.5s-12.6-22-14-24.5c-1.4-2.5-10.7-18.9-20.8-36.5-10-17.6-19.5-34.3-21-37-1.5-2.8-3.7-6.6-4.8-8.5-1.2-1.9-2.7-4.6-3.5-6-.7-1.4-8.9-15.8-18.2-32-9.2-16.2-17.7-31.1-18.8-33-6.8-12-12.9-22.7-13.7-24-1.3-2.1-11.6-20.4-15.3-26.9-1.6-3-4.7-8.4-6.7-12l-3.8-6.6-34.6-.3L0 79v271z"/></svg>