<svg id="Layer_1" data-name="Layer 1" xmlns="http://www.w3.org/2000/svg" viewBox="0 0 327.79 33.49"><title>2Artboard 1</title><path d="M234.27,20.85l1.78-.75c1.21,3.25,4.57,5.14,10.59,5.14,5.06,0,7.74-1.39,7.74-4,0-1.68-.86-3-4.28-3.17l-9-.57c-3.85-.25-5.92-1.78-5.92-4.6,0-3.32,3.64-5.24,9.74-5.24,6.49,0,9.84,2.1,11,5.39l-1.85.64c-1.25-2.92-3.64-4.46-9.31-4.46-5.06,0-7.67,1.39-7.67,3.6,0,1.64,1.25,2.82,4.24,3l9,.54c4.53.32,5.92,2.18,5.92,4.74,0,3.5-3,5.71-9.92,5.71C239.69,26.81,235.84,24.81,234.27,20.85Z"/><path d="M0,.86H3.21L15.66,22.72c.21.5.43.93.57,1.36h.11a10.74,10.74,0,0,1,.61-1.36L29.5.86h3.21V26.18H30.78V4.46c0-.68,0-1.46,0-1.89h-.11c-.21.43-.57,1.14-.93,1.78L17.26,26.18h-2L2.82,4.32A19.22,19.22,0,0,1,2,2.57H1.89c0,.43,0,1.07,0,1.89V26.18H0Z"/><path d="M36.2,21.65A4.46,4.46,0,0,1,37.84,18c1-.86,2.82-1.64,7.28-1.93l11.63-.71v-.43c0-3.75-2.75-5.71-8.52-5.71-5.21,0-8.56,1.5-9.2,4.82h-2.1c.61-4,4.92-6.38,11.31-6.38,7,0,10.45,2.5,10.45,7.38v4.6A38.85,38.85,0,0,0,59,26.18H57a38.93,38.93,0,0,1-.25-4.49C54.93,25,51,26.86,45,26.86,39.77,26.86,36.2,25,36.2,21.65Zm20.54-3.14V16.8l-11.13.68c-5.81.43-7.42,1.64-7.42,4.14s2.85,3.71,7.38,3.71C52,25.32,56.75,22.51,56.75,18.51Z"/><path d="M75.22,3.57l1.89-.82v5.6H86V10H77.11V20.08c0,3.5,2,4.67,5.06,4.67A17.18,17.18,0,0,0,86,24.29V26a13.91,13.91,0,0,1-4,.57c-5,0-6.74-2.5-6.74-6.31Z"/><path d="M88.5,1.07h2.28V5.24H88.5Zm.21,7.28H90.6V26.18H88.71Z"/><path d="M94.18,8.35h1.89v5.21c1.64-3.85,5.21-5.89,10.45-5.89,6.71,0,10.31,3.35,10.31,9.7v8.81H114.9V17.8c0-5.56-3-8.45-8.77-8.45-6.13,0-10.06,3.28-10.06,8.49v8.35H94.18Z"/><path d="M129.88,18.16l2.25-.25c.82,4.82,5,7.35,12.34,7.35,6.85,0,10.27-1.68,10.27-5.53,0-3.39-2-4.82-7.42-5.35l-8-.75c-5.6-.5-8.2-2.6-8.2-6.56,0-4.6,4.35-7.06,12-7.06,8.06,0,12.38,2.71,13.41,8l-2.21.39C153.42,4,150,1.78,143.11,1.78c-6.28,0-9.81,1.75-9.81,5.17,0,3.07,2,4.39,6.92,4.89l7.85.75c6.31.61,8.88,2.6,8.88,7,0,5.06-4.35,7.49-12.52,7.49C135.76,27,130.95,24.08,129.88,18.16Z"/><path d="M183.5,17.62H161.78c.14,4.78,3.82,7.6,10.06,7.6,5,0,8.35-1.64,9.74-4.71l1.71.68c-1.75,3.71-5.6,5.67-11.41,5.67-7.42,0-12.09-3.6-12.09-9.56,0-6.24,4.78-9.63,11.84-9.63,7.31,0,11.88,3.39,11.88,9.1Zm-2-1.53c0-4.39-4.21-6.92-9.88-6.92s-9.63,2.71-9.84,6.92Z"/><path d="M186.83,8.35h1.89v5.21c1.64-3.85,5.21-5.89,10.45-5.89,6.71,0,10.31,3.35,10.31,9.7v8.81h-1.93V17.8c0-5.56-3-8.45-8.77-8.45-6.13,0-10.06,3.28-10.06,8.49v8.35h-1.89Z"/><path d="M211.16,33.35V31.67a14.7,14.7,0,0,0,1.71.11,8.35,8.35,0,0,0,8-4.6l.46-.82L210,8.35h2.25l8.6,13.87a25.22,25.22,0,0,1,1.43,2.57h.07a27.87,27.87,0,0,1,1.36-2.5L232,8.35h2.14l-11.38,19c-2.5,4.24-5.06,6.17-9.81,6.17A11.9,11.9,0,0,1,211.16,33.35Z"/><path d="M276,10h-17.8V8.35h20.58V9.92L260.24,24.58h19.12v1.61H257.57V24.54Z"/><path d="M280.8,21.65A4.46,4.46,0,0,1,282.44,18c1-.86,2.82-1.64,7.28-1.93l11.63-.71v-.43c0-3.75-2.75-5.71-8.52-5.71-5.21,0-8.56,1.5-9.2,4.82h-2.1c.61-4,4.92-6.38,11.31-6.38,7,0,10.45,2.5,10.45,7.38v4.6a38.85,38.85,0,0,0,.36,6.53h-2a38.93,38.93,0,0,1-.25-4.49c-1.85,3.32-5.78,5.17-11.73,5.17C284.36,26.86,280.8,25,280.8,21.65Zm20.54-3.14V16.8l-11.13.68c-5.81.43-7.42,1.64-7.42,4.14s2.85,3.71,7.38,3.71C296.6,25.32,301.34,22.51,301.34,18.51Z"/><path d="M316.48,15.66l-7.88,5.28v5.24h-1.89V.32h1.89V19L324.08,8.35h3l-9,6.24,9.7,11.59h-2.5Z"/><path d="M72.58,8.35c-4.32,0-7.28,2.64-8.31,6.92l0-6.92H62.44V26.18h1.89l0-5.85c0-3.32.82-6.13,2.64-8.06a7,7,0,0,1,5.49-2.1h.32V8.35Z"/></svg>